<svg id="Layer_1" enable-background="new 0 0 53 53" height="512" viewBox="0 0 53 53" width="512" xmlns="http://www.w3.org/2000/svg"><g><path d="m48.8 22.2c-.9-11.1-10.4-20.4-22.3-20.4-11.7 0-21.4 9.1-22.3 20.4-.9 11.7 7.1 21.3 17.3 23.3-.1.4-1.2 5.2-1.2 5.4s.2.4.5.4c2-.1 4-.3 6-.4-1.8-.2-3.6-.3-5.4-.4 3.1-8.9 5-15.7 5.1-16.2 1.5 4.9 3.1 10.3 5.2 16.3-1.7.1-3.3.2-5 .4 1.8.2 3.7.3 5.5.4h.1c.2 0 .4-.3.3-.5-.4-1.7-.8-3.5-1.2-5.2 10.1-2.2 18.3-11.6 17.4-23.5zm-18.6 18.2c-.4-1.6-.8-3.2-1.3-4.9 5.5-.8 10-5.9 9.7-11.9-.2-6.2-5.4-11.5-12.1-11.6-6.7 0-11.9 5.4-12.1 11.6-.3 5.9 4 11.1 9.7 11.9-.5 1.6-.9 3.2-1.3 4.9-8.1-2.3-12.8-9.9-11.9-17.4.9-8.2 7.9-14.1 15.6-14.1s14.7 5.9 15.6 14.1c.9 7.5-3.8 15.1-11.9 17.4zm2.5-16c-.4 2.9-2.6 5.2-5.6 5.4-.1-.1-.2-.1-.3-.2-.3-.1-.6 0-.8.1-2.9-.4-4.7-2.9-4.7-5.3-.1-2.8 2.3-5.3 5.2-5.4s5.7 2 6.2 5.4c1.3-8.8-13.3-9.6-13.4 0 0 3.5 2.5 6.4 5.9 6.9 0 .2-1.1 4.1-1.1 4.1-5.5-1.6-8.6-6.7-8.1-11.7.5-5.7 5.4-9.7 10.5-9.7 5.2 0 10 4 10.5 9.7.5 5-2.6 10.1-8.1 11.7-.4-1.4-.8-2.8-1.2-4.2 3.3-.7 5.4-3.8 5-6.8zm-1.3 21c-.4-1.6-.8-3.3-1.2-4.9 8.1-1.4 14.2-9.1 13.5-17.6-.5-8.6-7.9-15.9-17.2-16-9.4 0-16.6 7.4-17.2 16-.7 8.6 5.5 16.2 13.5 17.6-.4 1.6-.8 3.3-1.2 4.9-10.6-3-17-12.9-15.8-23.1 1.2-10.7 10.3-18.6 20.7-18.5 10.4 0 19.5 7.9 20.7 18.6 1.2 10-5.1 20.1-15.8 23z"/></g></svg>